<svg width="26" height="25" viewBox="0 0 26 25" fill="none" xmlns="http://www.w3.org/2000/svg">
<path d="M12.9556 22.1836C11.9616 24.0612 10.4816 25 8.51557 25C7.02452 25 5.71571 24.4754 4.58913 23.4261C3.4736 22.3658 2.91584 21.0459 2.91584 19.4665C2.91584 18.2516 3.39077 17.1195 4.34062 16.0702C2.7833 15.772 1.66777 15.1425 0.994036 14.1816C0.331345 13.2096 0 12.1438 0 10.9841C0 9.95693 0.237464 9.01811 0.712392 8.16766C1.19837 7.30616 1.82792 6.63795 2.60106 6.16302C3.38524 5.68809 4.24674 5.45063 5.18555 5.45063C5.85929 5.45063 6.61586 5.62182 7.45527 5.96421C7.41109 5.35675 7.389 4.98122 7.389 4.83764C7.389 3.57853 7.90258 2.45748 8.92976 1.47449C9.95693 0.491496 11.2436 0 12.7899 0C14.3031 0 15.5622 0.50254 16.5673 1.50762C17.5723 2.50166 18.0749 3.66137 18.0749 4.98675C18.0749 5.30705 18.0638 5.57765 18.0417 5.79854C18.848 5.41197 19.6156 5.21869 20.3446 5.21869C21.9019 5.21869 23.1721 5.7875 24.1551 6.92512C25.1491 8.06273 25.6461 9.33841 25.6461 10.7522C25.6461 11.6578 25.3479 12.6298 24.7515 13.668C24.1661 14.7062 23.0616 15.4296 21.438 15.8383C21.9461 16.3795 22.3271 16.9097 22.5812 17.4288C22.8352 17.9368 22.9622 18.594 22.9622 19.4003C22.9622 20.8803 22.3989 22.1836 21.2724 23.3101C20.1458 24.4367 18.8646 25 17.4288 25C15.5401 25 14.049 24.0612 12.9556 22.1836ZM16.6832 13.1875C16.6832 12.1051 16.3077 11.1939 15.5567 10.4539C14.8167 9.70289 13.9165 9.32737 12.8562 9.32737C11.7848 9.32737 10.8681 9.70842 10.106 10.4705C9.35498 11.2216 8.97946 12.1272 8.97946 13.1875C8.97946 14.2478 9.35498 15.1535 10.106 15.9046C10.8571 16.6556 11.7738 17.0311 12.8562 17.0311C13.9165 17.0311 14.8167 16.6556 15.5567 15.9046C16.3077 15.1535 16.6832 14.2478 16.6832 13.1875Z" fill="white"/>
</svg>
 